<svg width="528" height="484" viewBox="0 0 528 484" fill="none" xmlns="http://www.w3.org/2000/svg">
<g id="Group 47">
<path id="Vector" d="M71.8682 74.3308H133.72V98.6694C133.72 102.863 132.054 106.884 129.089 109.849C126.124 112.815 122.103 114.48 117.909 114.48H87.6792C83.4859 114.48 79.4643 112.815 76.4991 109.849C73.534 106.884 71.8682 102.863 71.8682 98.6694V74.3308H71.8682Z" fill="#2F2E41"/>
<path id="Vector_2" d="M89.2301 481.253C89.2301 481.253 54.5895 484.287 49.9491 482.376C49.6562 482.256 49.3711 482.124 49.0938 481.983C42.1976 478.462 41.9874 468.601 48.4329 464.31L62.102 455.21L50.1656 391.187L96.2834 391.73L89.2301 481.253Z" fill="#2F2E41"/>
<path id="Vector_3" d="M115.273 481.795C115.273 481.795 149.914 484.83 154.554 482.919C154.847 482.798 155.132 482.667 155.409 482.525C162.306 479.004 162.516 469.143 156.07 464.852L142.401 455.752L159.221 391.73H110.933L115.273 481.795Z" fill="#2F2E41"/>
<path id="Vector_4" d="M33.8887 253.377L40.7551 280.842C41.599 284.218 41.3575 287.774 40.0648 291.005C38.772 294.235 36.4939 296.976 33.5542 298.838C31.1789 300.342 28.4595 301.217 25.6525 301.379C22.8456 301.541 20.0436 300.985 17.511 299.764C14.9784 298.543 12.7987 296.697 11.1774 294.4C9.55608 292.103 8.54671 289.43 8.24451 286.635L6.76056 272.909L1.33496 142.454C1.33496 131.603 4.5515 120.996 10.5781 111.973C16.6046 102.95 25.1707 95.9165 35.1937 91.7607L45.825 87.3525L33.8887 253.377Z" fill="#E6E6E6"/>
<path id="Vector_5" d="M206.423 141.37L206.391 142.14L202.007 247.441L201.16 267.787L200.998 271.824L199.511 285.55C199.267 287.807 198.562 289.988 197.44 291.961C196.317 293.933 194.801 295.653 192.985 297.014C191.17 298.376 189.094 299.349 186.886 299.874C184.678 300.399 182.386 300.465 180.152 300.066C177.918 299.668 175.79 298.815 173.899 297.559C172.009 296.304 170.397 294.673 169.164 292.768C167.93 290.864 167.102 288.725 166.73 286.487C166.358 284.248 166.45 281.957 167.001 279.756L173.869 252.291L173.718 250.251L172.806 237.49L161.933 86.2673L172.567 90.6729C182.584 94.8384 191.144 101.875 197.169 110.897C203.194 119.919 206.414 130.522 206.423 141.37Z" fill="#E6E6E6"/>
<path id="Vector_6" d="M105.567 261.2C66.1497 261.2 41.8351 247.53 41.4912 247.332L42.5758 245.452C43.0601 245.732 91.825 273.086 163.47 249.375L164.152 251.435C145.273 257.809 125.493 261.106 105.567 261.2Z" fill="#2F2E41"/>
<path id="Vector_7" d="M66.5354 361.245C57.8608 341.726 57.8168 256.892 57.8194 253.291L59.9897 253.293C59.9891 254.17 60.0299 341.263 68.5191 360.363L66.5354 361.245Z" fill="#2F2E41"/>
<path id="Vector_8" d="M71.048 362.12C63.3207 362.12 58.1865 360.474 54.8394 358.587C48.7452 355.15 47.4878 350.468 47.4375 350.27L49.5399 349.732L48.4887 350.001L49.5383 349.727C49.5823 349.891 50.6796 353.79 56.0014 356.75C61.861 360.009 73.6559 362.441 96.5601 355.515L97.1874 357.592C86.2259 360.907 77.6816 362.12 71.048 362.12Z" fill="#2F2E41"/>
<path id="Vector_9" d="M51.6652 84.6834L49.4971 84.7896L57.821 254.75L59.9891 254.644L51.6652 84.6834Z" fill="#2F2E41"/>
<path id="Vector_10" d="M140.138 361.245L138.154 360.363C146.643 341.263 146.684 254.17 146.683 253.293L148.854 253.291C148.856 256.892 148.812 341.726 140.138 361.245Z" fill="#2F2E41"/>
<path id="Vector_11" d="M135.625 362.12C128.992 362.12 120.449 360.908 109.486 357.592L110.113 355.515C133.017 362.44 144.81 360.01 150.672 356.75C155.994 353.79 157.09 349.891 157.134 349.727L159.235 350.27C159.184 350.468 157.928 355.15 151.833 358.587C148.487 360.474 143.35 362.12 135.625 362.12Z" fill="#2F2E41"/>
<path id="Vector_12" d="M155 84.6832L146.693 254.644L148.861 254.75L157.168 84.7891L155 84.6832Z" fill="#2F2E41"/>
<path id="Vector_13" d="M133.59 110.14L117.443 134.012H82.7189L71.1089 110.14H76.2089L84.8899 129.672H114.188L128.295 110.14H133.59Z" fill="#6C63FF"/>
<path id="Vector_14" d="M208.594 141.37L208.561 142.14L187.976 148.119L175.237 122.641L188.269 98.7461C194.62 103.887 199.74 110.382 203.257 117.757C206.774 125.132 208.597 133.199 208.594 141.37Z" fill="#6C63FF"/>
<path id="Vector_15" d="M4.54323e-06 141.37L0.0325973 142.14L20.6174 148.119L33.3567 122.641L20.3244 98.7461C13.9739 103.887 8.85311 110.382 5.33655 117.757C1.82 125.132 -0.00332185 133.199 4.54323e-06 141.37Z" fill="#6C63FF"/>
<path id="Vector_16" d="M102.794 84.6397C126.167 84.6397 145.114 65.6925 145.114 42.3199C145.114 18.9472 126.167 0 102.794 0C79.4214 0 60.4741 18.9472 60.4741 42.3199C60.4741 65.6925 79.4214 84.6397 102.794 84.6397Z" fill="#2F2E41"/>
<path id="Vector_17" d="M202.626 247.441L201.745 267.787L173.913 252.834L173.191 250.251L172.242 237.49L202.626 247.441Z" fill="#6C63FF"/>
<path id="Vector_18" d="M4.66602 247.441L5.59201 267.787L34.845 252.834L35.605 250.251L36.602 237.49L4.66602 247.441Z" fill="#6C63FF"/>
<path id="Vector_19" d="M118.02 135.098H82.0397L62.1187 94.1483L61.0947 79.4193L63.2597 79.2693L64.2547 93.5773L83.3987 132.927H116.867L141.417 96.6373L146.643 80.6143L148.708 81.2863L143.3 97.7273L118.02 135.098Z" fill="#2F2E41"/>
<path id="Vector_20" d="M152.342 82.1835C152.342 82.1835 202.731 -17.002 262.092 39.3083C321.453 95.6186 336.036 131.308 385.66 111.481C435.285 91.6531 433.443 52.68 472.609 67.0114C511.774 81.3428 525.342 34.4149 525.342 34.4149" stroke="#D6D5EA" stroke-width="4" stroke-miterlimit="10"/>
</g>
</svg>
