<svg width="497" height="454" viewBox="0 0 497 454" fill="none" xmlns="http://www.w3.org/2000/svg">
<g id="Group 49">
<path id="Vector" d="M122 89.1742C122 89.1742 172.389 -10.0113 231.75 46.299C291.111 102.609 305.694 138.299 355.319 118.471C404.943 98.6439 403.101 59.6708 442.267 74.0021C481.433 88.3335 495 41.4056 495 41.4056" stroke="#D6D5EA" stroke-width="4" stroke-miterlimit="10"/>
<g id="Group 48">
<path id="Vector_2" d="M28.7399 162.405L2.29492 223.343L7.46893 231.966L5.74396 234.84L17.817 241.164V237.715L22.416 236.565L41.9619 200.922L28.7399 162.405Z" fill="#E6E6E6"/>
<path id="Vector_3" d="M8.04388 234.266C8.04388 234.266 -11.5022 264.735 10.3434 269.334C32.1891 273.933 14.3677 237.14 14.3677 237.14L8.04388 234.266Z" fill="#E6E6E6"/>
<path id="Vector_4" d="M36.2132 220.469L29.3146 242.889L26.4401 271.633L21.2661 281.981L27.015 328.547L36.2131 337.745L40.2373 383.736V404.432L51.1602 423.403L37.0944 443.367C36.4308 444.306 36.0338 445.406 35.9454 446.552C35.8571 447.697 36.0807 448.845 36.5925 449.874C37.1043 450.903 37.8852 451.774 38.8522 452.394C39.8193 453.015 40.9363 453.362 42.0848 453.398C45.1902 453.48 49.2839 452.603 54.6094 449.848C71.2811 441.225 70.7062 433.176 70.7062 433.176C70.7062 433.176 81.0542 433.176 81.6291 425.128C82.204 417.079 75.3053 359.591 75.3053 359.591L68.9816 334.871V267.609H71.2811L72.4309 325.098L77.6049 346.369L78.1798 355.567L85.6533 447.548C85.6533 447.548 118.997 456.747 120.721 449.273C122.446 441.8 108.074 437.2 108.074 437.2L116.697 420.529V388.335L113.823 381.437L108.649 334.871L117.272 325.673L121.871 319.924V273.933L116.122 256.112L114.398 241.165L105.199 218.169C105.199 218.169 63.2328 204.372 36.2132 220.469Z" fill="white"/>
<path id="Vector_5" d="M110.948 90.5445C110.949 97.4594 109.308 104.276 106.16 110.433C103.013 116.59 98.4487 121.912 92.8436 125.961C87.2385 130.011 80.7523 132.672 73.9182 133.726C67.0841 134.78 60.0974 134.198 53.5326 132.025C46.9677 129.853 41.0122 126.154 36.1556 121.232C31.2991 116.309 27.6802 110.304 25.5966 103.711C23.513 97.1173 23.0241 90.1234 24.1702 83.3042C25.3163 76.4849 28.0646 70.0351 32.1892 64.485L32.2007 64.4735C37.6809 57.1016 45.3452 51.6447 54.1044 48.8783C62.8635 46.1119 72.2718 46.1768 80.992 49.0638C89.7122 51.9508 97.3004 57.5129 102.678 64.9597C108.056 72.4065 110.95 81.3589 110.948 90.5445V90.5445Z" fill="#6C63FF"/>
<path id="Vector_6" d="M105.889 70.1303L102.325 90.5444C75.5411 21.0178 32.9366 63.726 32.2007 64.4734C36.604 58.5518 42.4354 53.8419 49.1509 50.7832C55.8665 47.7245 63.2473 46.4165 70.605 46.9813C77.9627 47.5462 85.0574 49.9654 91.2274 54.0133C97.3974 58.0612 102.442 63.6059 105.889 70.1303V70.1303Z" fill="white"/>
<path id="Vector_7" d="M99.9003 61.5119L105.89 82.3022C105.89 82.3022 93.4569 119.566 35.8035 120.864L33.9139 126.187L27.5902 127.912L24.7158 139.985L32.7642 216.444C32.7642 216.444 29.3149 223.918 35.0637 223.343C35.0637 223.343 73.0062 210.696 105.775 222.193C105.775 222.193 112.673 225.068 110.949 218.744C110.949 218.744 133.944 204.372 132.219 189.425C130.495 174.478 133.944 104.917 133.944 104.917C133.944 104.917 137.393 84.7957 127.045 80.1966C127.045 80.1966 111.847 58.924 99.9003 61.5119Z" fill="white"/>
<path id="Vector_8" d="M87.2965 206.777C87.2965 206.777 51.2781 210.394 61.2485 230.368C71.2189 250.343 88.9736 213.518 88.9736 213.518L87.2965 206.777Z" fill="#E6E6E6"/>
<path id="Vector_9" d="M105.774 117.564C105.774 117.564 99.4507 125.038 101.75 137.11C104.05 149.183 112.673 176.202 112.673 176.202L82.2041 204.372L91.4023 217.019L132.794 195.748L141.992 190C139.705 166.747 134.014 143.957 125.1 122.359L123.596 118.714C123.596 118.714 112.673 114.115 105.774 117.564Z" fill="#E6E6E6"/>
<path id="Vector_10" d="M95.4265 15.5219C99.7127 15.5219 103.187 12.0472 103.187 7.76096C103.187 3.4747 99.7127 0 95.4265 0C91.1402 0 87.6655 3.4747 87.6655 7.76096C87.6655 12.0472 91.1402 15.5219 95.4265 15.5219Z" fill="#E6E6E6"/>
</g>
</g>
</svg>
